<mxfile host="app.diagrams.net" modified="2024-03-07T07:49:08.371Z" agent="Mozilla/5.0 (Windows NT 10.0; Win64; x64) AppleWebKit/537.36 (KHTML, like Gecko) Chrome/122.0.0.0 Safari/537.36" etag="-Eb8KS5GPTM8dLvaycAo" version="23.1.7" type="device">
  <diagram name="페이지-1" id="CKxbLavsxSehY12KvUs0">
    <mxGraphModel dx="2514" dy="918" grid="1" gridSize="10" guides="1" tooltips="1" connect="1" arrows="1" fold="1" page="1" pageScale="1" pageWidth="827" pageHeight="1169" math="0" shadow="0">
      <root>
        <mxCell id="0" />
        <mxCell id="1" parent="0" />
        <mxCell id="4H-ML0NhB3pePpC11hCJ-2" value="&lt;font style=&quot;font-size: 40px;&quot;&gt;&lt;b&gt;학점 산출 프로그램 시나리오&lt;/b&gt;&lt;/font&gt;" style="text;html=1;align=center;verticalAlign=middle;whiteSpace=wrap;rounded=0;" vertex="1" parent="1">
          <mxGeometry y="10" width="600" height="80" as="geometry" />
        </mxCell>
        <mxCell id="4H-ML0NhB3pePpC11hCJ-4" value="&lt;font style=&quot;font-size: 18px;&quot;&gt;Good School 학교가 있습니다. 이 학교에는 5명의 학생들이 수업을 듣습니다. &lt;br&gt;과목은 국어와 수학이 있고 각 학생은 두 과목을 모두 수강합니다. &lt;br&gt;그리고 컴퓨터 공학과 학생은 수학, 국어국문학과 학생은 국어가 필수 과목입니다. &lt;br&gt;이번 학기 각 학생의 과목별 성적은 다음과 같습니다.&lt;/font&gt;" style="text;html=1;align=center;verticalAlign=middle;whiteSpace=wrap;rounded=0;" vertex="1" parent="1">
          <mxGeometry x="29" y="90" width="770" height="70" as="geometry" />
        </mxCell>
        <mxCell id="4H-ML0NhB3pePpC11hCJ-5" value="학생&lt;br&gt;(Student)" style="rounded=0;whiteSpace=wrap;html=1;" vertex="1" parent="1">
          <mxGeometry x="331" y="360" width="120" height="60" as="geometry" />
        </mxCell>
        <mxCell id="4H-ML0NhB3pePpC11hCJ-9" value="과목&lt;br&gt;(Subject)" style="rounded=0;whiteSpace=wrap;html=1;" vertex="1" parent="1">
          <mxGeometry x="122" y="490" width="120" height="60" as="geometry" />
        </mxCell>
        <mxCell id="4H-ML0NhB3pePpC11hCJ-10" value="점수&lt;br&gt;(Score)" style="rounded=0;whiteSpace=wrap;html=1;" vertex="1" parent="1">
          <mxGeometry x="541" y="490" width="120" height="60" as="geometry" />
        </mxCell>
        <mxCell id="4H-ML0NhB3pePpC11hCJ-13" value="학번&lt;br&gt;(no)" style="rounded=1;whiteSpace=wrap;html=1;arcSize=50;" vertex="1" parent="1">
          <mxGeometry x="196" y="260" width="90" height="50" as="geometry" />
        </mxCell>
        <mxCell id="4H-ML0NhB3pePpC11hCJ-37" style="edgeStyle=orthogonalEdgeStyle;rounded=0;orthogonalLoop=1;jettySize=auto;html=1;exitX=0.5;exitY=1;exitDx=0;exitDy=0;" edge="1" parent="1" source="4H-ML0NhB3pePpC11hCJ-14">
          <mxGeometry relative="1" as="geometry">
            <mxPoint x="391.2857142857142" y="360" as="targetPoint" />
          </mxGeometry>
        </mxCell>
        <mxCell id="4H-ML0NhB3pePpC11hCJ-14" value="이름&lt;br&gt;(name)" style="rounded=1;whiteSpace=wrap;html=1;arcSize=50;" vertex="1" parent="1">
          <mxGeometry x="347" y="260" width="89" height="50" as="geometry" />
        </mxCell>
        <mxCell id="4H-ML0NhB3pePpC11hCJ-15" value="필수과목&lt;br&gt;(subject)" style="rounded=1;whiteSpace=wrap;html=1;arcSize=50;" vertex="1" parent="1">
          <mxGeometry x="496" y="260" width="90" height="50" as="geometry" />
        </mxCell>
        <mxCell id="4H-ML0NhB3pePpC11hCJ-17" value="과목코드&lt;br&gt;(code)" style="rounded=1;whiteSpace=wrap;html=1;arcSize=50;" vertex="1" parent="1">
          <mxGeometry x="11" y="580" width="90" height="50" as="geometry" />
        </mxCell>
        <mxCell id="4H-ML0NhB3pePpC11hCJ-18" value="평가방법&lt;br&gt;(style)" style="rounded=1;whiteSpace=wrap;html=1;arcSize=50;" vertex="1" parent="1">
          <mxGeometry x="137" y="580" width="90" height="50" as="geometry" />
        </mxCell>
        <mxCell id="4H-ML0NhB3pePpC11hCJ-19" value="과목명&lt;br&gt;(Sname)" style="rounded=1;whiteSpace=wrap;html=1;arcSize=50;" vertex="1" parent="1">
          <mxGeometry x="257" y="580" width="90" height="50" as="geometry" />
        </mxCell>
        <mxCell id="4H-ML0NhB3pePpC11hCJ-20" value="학번&lt;br&gt;(no)" style="rounded=1;whiteSpace=wrap;html=1;arcSize=50;" vertex="1" parent="1">
          <mxGeometry x="440" y="580" width="90" height="50" as="geometry" />
        </mxCell>
        <mxCell id="4H-ML0NhB3pePpC11hCJ-21" value="과목&lt;br&gt;(subject)" style="rounded=1;whiteSpace=wrap;html=1;arcSize=50;" vertex="1" parent="1">
          <mxGeometry x="560" y="580" width="90" height="50" as="geometry" />
        </mxCell>
        <mxCell id="4H-ML0NhB3pePpC11hCJ-22" value="점수&lt;br&gt;(point)" style="rounded=1;whiteSpace=wrap;html=1;arcSize=50;" vertex="1" parent="1">
          <mxGeometry x="690" y="580" width="90" height="50" as="geometry" />
        </mxCell>
        <mxCell id="4H-ML0NhB3pePpC11hCJ-25" value="1" style="text;html=1;align=center;verticalAlign=middle;resizable=0;points=[];autosize=1;strokeColor=none;fillColor=none;" vertex="1" parent="1">
          <mxGeometry x="400" y="420" width="30" height="30" as="geometry" />
        </mxCell>
        <mxCell id="4H-ML0NhB3pePpC11hCJ-26" value="n" style="text;html=1;align=center;verticalAlign=middle;resizable=0;points=[];autosize=1;strokeColor=none;fillColor=none;" vertex="1" parent="1">
          <mxGeometry x="605" y="458" width="30" height="30" as="geometry" />
        </mxCell>
        <mxCell id="4H-ML0NhB3pePpC11hCJ-29" value="1" style="text;html=1;align=center;verticalAlign=middle;resizable=0;points=[];autosize=1;strokeColor=none;fillColor=none;" vertex="1" parent="1">
          <mxGeometry x="145" y="458" width="30" height="30" as="geometry" />
        </mxCell>
        <mxCell id="4H-ML0NhB3pePpC11hCJ-30" value="n" style="text;html=1;align=center;verticalAlign=middle;resizable=0;points=[];autosize=1;strokeColor=none;fillColor=none;" vertex="1" parent="1">
          <mxGeometry x="357" y="419" width="30" height="30" as="geometry" />
        </mxCell>
        <mxCell id="4H-ML0NhB3pePpC11hCJ-33" value="" style="endArrow=none;html=1;rounded=0;exitX=1;exitY=0.5;exitDx=0;exitDy=0;" edge="1" parent="1" source="4H-ML0NhB3pePpC11hCJ-9">
          <mxGeometry width="50" height="50" relative="1" as="geometry">
            <mxPoint x="350" y="490" as="sourcePoint" />
            <mxPoint x="540" y="520" as="targetPoint" />
            <Array as="points">
              <mxPoint x="360" y="520" />
            </Array>
          </mxGeometry>
        </mxCell>
        <mxCell id="4H-ML0NhB3pePpC11hCJ-34" value="1" style="text;html=1;align=center;verticalAlign=middle;resizable=0;points=[];autosize=1;strokeColor=none;fillColor=none;" vertex="1" parent="1">
          <mxGeometry x="235" y="498" width="30" height="30" as="geometry" />
        </mxCell>
        <mxCell id="4H-ML0NhB3pePpC11hCJ-35" value="1" style="text;html=1;align=center;verticalAlign=middle;resizable=0;points=[];autosize=1;strokeColor=none;fillColor=none;" vertex="1" parent="1">
          <mxGeometry x="517" y="498" width="30" height="30" as="geometry" />
        </mxCell>
        <mxCell id="4H-ML0NhB3pePpC11hCJ-36" value="" style="endArrow=classic;html=1;rounded=0;exitX=0.5;exitY=1;exitDx=0;exitDy=0;entryX=0.5;entryY=0;entryDx=0;entryDy=0;" edge="1" parent="1" source="4H-ML0NhB3pePpC11hCJ-13" target="4H-ML0NhB3pePpC11hCJ-5">
          <mxGeometry width="50" height="50" relative="1" as="geometry">
            <mxPoint x="330" y="450" as="sourcePoint" />
            <mxPoint x="380" y="400" as="targetPoint" />
          </mxGeometry>
        </mxCell>
        <mxCell id="4H-ML0NhB3pePpC11hCJ-38" value="" style="endArrow=classic;html=1;rounded=0;entryX=0.5;entryY=0;entryDx=0;entryDy=0;exitX=0.5;exitY=1;exitDx=0;exitDy=0;" edge="1" parent="1" source="4H-ML0NhB3pePpC11hCJ-15" target="4H-ML0NhB3pePpC11hCJ-5">
          <mxGeometry width="50" height="50" relative="1" as="geometry">
            <mxPoint x="330" y="450" as="sourcePoint" />
            <mxPoint x="380" y="400" as="targetPoint" />
          </mxGeometry>
        </mxCell>
        <mxCell id="4H-ML0NhB3pePpC11hCJ-39" value="" style="endArrow=classic;html=1;rounded=0;entryX=0.5;entryY=1;entryDx=0;entryDy=0;exitX=0.5;exitY=0;exitDx=0;exitDy=0;" edge="1" parent="1" source="4H-ML0NhB3pePpC11hCJ-17" target="4H-ML0NhB3pePpC11hCJ-9">
          <mxGeometry width="50" height="50" relative="1" as="geometry">
            <mxPoint x="330" y="550" as="sourcePoint" />
            <mxPoint x="380" y="500" as="targetPoint" />
          </mxGeometry>
        </mxCell>
        <mxCell id="4H-ML0NhB3pePpC11hCJ-40" value="" style="endArrow=classic;html=1;rounded=0;entryX=0.5;entryY=1;entryDx=0;entryDy=0;exitX=0.5;exitY=0;exitDx=0;exitDy=0;" edge="1" parent="1" source="4H-ML0NhB3pePpC11hCJ-18" target="4H-ML0NhB3pePpC11hCJ-9">
          <mxGeometry width="50" height="50" relative="1" as="geometry">
            <mxPoint x="330" y="550" as="sourcePoint" />
            <mxPoint x="380" y="500" as="targetPoint" />
          </mxGeometry>
        </mxCell>
        <mxCell id="4H-ML0NhB3pePpC11hCJ-41" value="" style="endArrow=classic;html=1;rounded=0;entryX=0.5;entryY=1;entryDx=0;entryDy=0;exitX=0.5;exitY=0;exitDx=0;exitDy=0;" edge="1" parent="1" source="4H-ML0NhB3pePpC11hCJ-19" target="4H-ML0NhB3pePpC11hCJ-9">
          <mxGeometry width="50" height="50" relative="1" as="geometry">
            <mxPoint x="330" y="550" as="sourcePoint" />
            <mxPoint x="380" y="500" as="targetPoint" />
          </mxGeometry>
        </mxCell>
        <mxCell id="4H-ML0NhB3pePpC11hCJ-42" value="" style="endArrow=classic;html=1;rounded=0;entryX=0.5;entryY=1;entryDx=0;entryDy=0;exitX=0.5;exitY=0;exitDx=0;exitDy=0;" edge="1" parent="1" source="4H-ML0NhB3pePpC11hCJ-20" target="4H-ML0NhB3pePpC11hCJ-10">
          <mxGeometry width="50" height="50" relative="1" as="geometry">
            <mxPoint x="330" y="550" as="sourcePoint" />
            <mxPoint x="380" y="500" as="targetPoint" />
          </mxGeometry>
        </mxCell>
        <mxCell id="4H-ML0NhB3pePpC11hCJ-43" value="" style="endArrow=classic;html=1;rounded=0;entryX=0.5;entryY=1;entryDx=0;entryDy=0;exitX=0.5;exitY=0;exitDx=0;exitDy=0;" edge="1" parent="1" source="4H-ML0NhB3pePpC11hCJ-21" target="4H-ML0NhB3pePpC11hCJ-10">
          <mxGeometry width="50" height="50" relative="1" as="geometry">
            <mxPoint x="330" y="550" as="sourcePoint" />
            <mxPoint x="380" y="500" as="targetPoint" />
          </mxGeometry>
        </mxCell>
        <mxCell id="4H-ML0NhB3pePpC11hCJ-44" value="" style="endArrow=classic;html=1;rounded=0;entryX=0.5;entryY=1;entryDx=0;entryDy=0;exitX=0.5;exitY=0;exitDx=0;exitDy=0;" edge="1" parent="1" source="4H-ML0NhB3pePpC11hCJ-22" target="4H-ML0NhB3pePpC11hCJ-10">
          <mxGeometry width="50" height="50" relative="1" as="geometry">
            <mxPoint x="810" y="550" as="sourcePoint" />
            <mxPoint x="860" y="500" as="targetPoint" />
          </mxGeometry>
        </mxCell>
        <mxCell id="4H-ML0NhB3pePpC11hCJ-45" value="수강" style="rhombus;whiteSpace=wrap;html=1;" vertex="1" parent="1">
          <mxGeometry x="159.75" y="370" width="44.5" height="40" as="geometry" />
        </mxCell>
        <mxCell id="4H-ML0NhB3pePpC11hCJ-46" value="" style="endArrow=classic;html=1;rounded=0;entryX=1;entryY=0.5;entryDx=0;entryDy=0;exitX=0;exitY=0.5;exitDx=0;exitDy=0;" edge="1" parent="1" source="4H-ML0NhB3pePpC11hCJ-5" target="4H-ML0NhB3pePpC11hCJ-45">
          <mxGeometry width="50" height="50" relative="1" as="geometry">
            <mxPoint x="390" y="450" as="sourcePoint" />
            <mxPoint x="440" y="400" as="targetPoint" />
          </mxGeometry>
        </mxCell>
        <mxCell id="4H-ML0NhB3pePpC11hCJ-47" value="" style="endArrow=classic;html=1;rounded=0;entryX=0.506;entryY=-0.056;entryDx=0;entryDy=0;entryPerimeter=0;exitX=0.5;exitY=1;exitDx=0;exitDy=0;" edge="1" parent="1" source="4H-ML0NhB3pePpC11hCJ-45" target="4H-ML0NhB3pePpC11hCJ-9">
          <mxGeometry width="50" height="50" relative="1" as="geometry">
            <mxPoint x="390" y="450" as="sourcePoint" />
            <mxPoint x="440" y="400" as="targetPoint" />
          </mxGeometry>
        </mxCell>
        <mxCell id="4H-ML0NhB3pePpC11hCJ-48" value="응시" style="rhombus;whiteSpace=wrap;html=1;" vertex="1" parent="1">
          <mxGeometry x="578.75" y="370" width="44.5" height="40" as="geometry" />
        </mxCell>
        <mxCell id="4H-ML0NhB3pePpC11hCJ-49" value="" style="endArrow=classic;html=1;rounded=0;entryX=0;entryY=0.5;entryDx=0;entryDy=0;exitX=1;exitY=0.5;exitDx=0;exitDy=0;" edge="1" parent="1" source="4H-ML0NhB3pePpC11hCJ-5" target="4H-ML0NhB3pePpC11hCJ-48">
          <mxGeometry width="50" height="50" relative="1" as="geometry">
            <mxPoint x="390" y="450" as="sourcePoint" />
            <mxPoint x="440" y="400" as="targetPoint" />
          </mxGeometry>
        </mxCell>
        <mxCell id="4H-ML0NhB3pePpC11hCJ-50" value="" style="endArrow=classic;html=1;rounded=0;entryX=0.5;entryY=0;entryDx=0;entryDy=0;exitX=0.5;exitY=1;exitDx=0;exitDy=0;" edge="1" parent="1" source="4H-ML0NhB3pePpC11hCJ-48" target="4H-ML0NhB3pePpC11hCJ-10">
          <mxGeometry width="50" height="50" relative="1" as="geometry">
            <mxPoint x="390" y="450" as="sourcePoint" />
            <mxPoint x="440" y="400" as="targetPoint" />
          </mxGeometry>
        </mxCell>
        <mxCell id="4H-ML0NhB3pePpC11hCJ-51" value="&lt;font style=&quot;font-size: 20px;&quot;&gt;Entity&lt;/font&gt;" style="rounded=0;whiteSpace=wrap;html=1;" vertex="1" parent="1">
          <mxGeometry x="-160" y="240" width="120" height="60" as="geometry" />
        </mxCell>
        <mxCell id="4H-ML0NhB3pePpC11hCJ-52" value="&lt;font style=&quot;font-size: 20px;&quot;&gt;Attribute&lt;/font&gt;" style="rounded=1;whiteSpace=wrap;html=1;arcSize=50;" vertex="1" parent="1">
          <mxGeometry x="-160" y="330" width="120" height="50" as="geometry" />
        </mxCell>
        <mxCell id="4H-ML0NhB3pePpC11hCJ-53" value="&lt;font style=&quot;font-size: 20px;&quot;&gt;Relation&lt;/font&gt;" style="rhombus;whiteSpace=wrap;html=1;" vertex="1" parent="1">
          <mxGeometry x="-160" y="409" width="120" height="40" as="geometry" />
        </mxCell>
        <mxCell id="4H-ML0NhB3pePpC11hCJ-54" value="&lt;font style=&quot;font-size: 18px;&quot;&gt;정보 공학적&lt;br&gt;E R D&lt;br&gt;(Entity Relationship Diagram)&lt;br&gt;&lt;/font&gt;" style="text;html=1;align=center;verticalAlign=middle;whiteSpace=wrap;rounded=0;" vertex="1" parent="1">
          <mxGeometry x="-205" y="140" width="210" height="100" as="geometry" />
        </mxCell>
        <mxCell id="4H-ML0NhB3pePpC11hCJ-55" value="" style="endArrow=classic;html=1;rounded=0;" edge="1" parent="1">
          <mxGeometry width="50" height="50" relative="1" as="geometry">
            <mxPoint x="-160" y="480" as="sourcePoint" />
            <mxPoint x="-40" y="480" as="targetPoint" />
          </mxGeometry>
        </mxCell>
        <mxCell id="4H-ML0NhB3pePpC11hCJ-56" value="" style="endArrow=none;html=1;rounded=0;" edge="1" parent="1">
          <mxGeometry width="50" height="50" relative="1" as="geometry">
            <mxPoint x="-160" y="498" as="sourcePoint" />
            <mxPoint x="-40" y="498" as="targetPoint" />
          </mxGeometry>
        </mxCell>
        <mxCell id="4H-ML0NhB3pePpC11hCJ-57" value="&lt;font style=&quot;font-size: 20px;&quot;&gt;Link&lt;/font&gt;" style="text;html=1;align=center;verticalAlign=middle;resizable=0;points=[];autosize=1;strokeColor=none;fillColor=none;" vertex="1" parent="1">
          <mxGeometry x="-130" y="468" width="60" height="40" as="geometry" />
        </mxCell>
        <mxCell id="4H-ML0NhB3pePpC11hCJ-58" value="1. 각 클래스 생성" style="text;html=1;align=center;verticalAlign=middle;resizable=0;points=[];autosize=1;strokeColor=none;fillColor=none;" vertex="1" parent="1">
          <mxGeometry x="29" y="700" width="120" height="30" as="geometry" />
        </mxCell>
        <mxCell id="4H-ML0NhB3pePpC11hCJ-59" value="2." style="text;html=1;align=center;verticalAlign=middle;resizable=0;points=[];autosize=1;strokeColor=none;fillColor=none;" vertex="1" parent="1">
          <mxGeometry x="55" y="748" width="30" height="30" as="geometry" />
        </mxCell>
      </root>
    </mxGraphModel>
  </diagram>
</mxfile>
